<mxfile host="65bd71144e">
    <diagram id="n9wY_TJITBzp8rn4aVeb" name="Page-1">
        <mxGraphModel dx="1084" dy="1030" grid="1" gridSize="5" guides="1" tooltips="1" connect="0" arrows="0" fold="1" page="1" pageScale="1" pageWidth="850" pageHeight="1100" math="0" shadow="0">
            <root>
                <mxCell id="0"/>
                <mxCell id="1" parent="0"/>
                <mxCell id="15" value="" style="rounded=0;whiteSpace=wrap;html=1;shadow=1;fillColor=#141A29;strokeColor=none;" parent="1" vertex="1">
                    <mxGeometry x="200" y="80" width="540" height="600" as="geometry"/>
                </mxCell>
                <mxCell id="75" value="" style="rounded=0;whiteSpace=wrap;html=1;shadow=0;strokeColor=default;strokeWidth=1;fontFamily=Verdana;fontSize=17;fillColor=none;gradientColor=none;" parent="1" vertex="1">
                    <mxGeometry x="130" y="795" width="670" height="1075" as="geometry"/>
                </mxCell>
                <mxCell id="23" value="" style="edgeStyle=none;html=1;" parent="1" source="22" target="15" edge="1">
                    <mxGeometry relative="1" as="geometry"/>
                </mxCell>
                <mxCell id="24" value="" style="edgeStyle=none;html=1;" parent="1" source="22" target="15" edge="1">
                    <mxGeometry relative="1" as="geometry"/>
                </mxCell>
                <mxCell id="25" value="" style="edgeStyle=none;html=1;" parent="1" source="22" target="15" edge="1">
                    <mxGeometry relative="1" as="geometry"/>
                </mxCell>
                <mxCell id="26" style="edgeStyle=none;html=1;" parent="1" source="22" target="15" edge="1">
                    <mxGeometry relative="1" as="geometry"/>
                </mxCell>
                <mxCell id="2" value="" style="shape=delay;whiteSpace=wrap;html=1;fillColor=#504361;shadow=1;" parent="1" vertex="1">
                    <mxGeometry x="465" y="80" width="115" height="30" as="geometry"/>
                </mxCell>
                <mxCell id="5" value="" style="shape=delay;whiteSpace=wrap;html=1;fillColor=#76628F;shadow=1;" parent="1" vertex="1">
                    <mxGeometry x="365" y="80" width="120" height="30" as="geometry"/>
                </mxCell>
                <mxCell id="6" value="" style="shape=delay;whiteSpace=wrap;html=1;fillColor=#76628F;shadow=1;" parent="1" vertex="1">
                    <mxGeometry x="265" y="80" width="120" height="30" as="geometry"/>
                </mxCell>
                <mxCell id="7" value="" style="shape=delay;whiteSpace=wrap;html=1;fillColor=#76628F;shadow=1;" parent="1" vertex="1">
                    <mxGeometry x="200" y="80" width="85" height="30" as="geometry"/>
                </mxCell>
                <mxCell id="9" value="Home Page" style="text;html=1;strokeColor=none;fillColor=none;align=center;verticalAlign=middle;whiteSpace=wrap;rounded=0;fontStyle=4" parent="1" vertex="1">
                    <mxGeometry x="200" y="80" width="80" height="30" as="geometry"/>
                </mxCell>
                <mxCell id="10" value="Navigation Tab" style="text;html=1;strokeColor=none;fillColor=none;align=center;verticalAlign=middle;whiteSpace=wrap;rounded=0;fontStyle=4" parent="1" vertex="1">
                    <mxGeometry x="290" y="80" width="90" height="30" as="geometry"/>
                </mxCell>
                <mxCell id="11" value="Navigation&amp;nbsp;Tab" style="text;html=1;strokeColor=none;fillColor=none;align=center;verticalAlign=middle;whiteSpace=wrap;rounded=0;fontStyle=4" parent="1" vertex="1">
                    <mxGeometry x="390" y="80" width="90" height="30" as="geometry"/>
                </mxCell>
                <mxCell id="12" value="Navigation" style="text;html=1;strokeColor=none;fillColor=none;align=center;verticalAlign=middle;whiteSpace=wrap;rounded=0;fontStyle=4;shadow=0;" parent="1" vertex="1">
                    <mxGeometry x="490" y="80" width="80" height="30" as="geometry"/>
                </mxCell>
                <mxCell id="34" value="" style="rounded=0;whiteSpace=wrap;html=1;shadow=0;fillColor=#504361;" parent="1" vertex="1">
                    <mxGeometry x="90" y="20" width="650" height="60" as="geometry"/>
                </mxCell>
                <mxCell id="35" value="" style="verticalLabelPosition=bottom;shadow=0;dashed=0;align=center;html=1;verticalAlign=top;strokeWidth=1;shape=mxgraph.mockup.navigation.scrollBar;strokeColor=#999999;barPos=100;fillColor2=#99ddff;strokeColor2=none;direction=north;fillColor=#504361;" parent="1" vertex="1">
                    <mxGeometry x="740" y="20" width="20" height="660" as="geometry"/>
                </mxCell>
                <mxCell id="51" value="&lt;h1&gt;&lt;font face=&quot;Verdana&quot;&gt;Logo Text&lt;/font&gt;&lt;/h1&gt;" style="text;html=1;strokeColor=none;fillColor=none;align=center;verticalAlign=middle;rounded=0;shadow=1;strokeWidth=0.5;labelBorderColor=none;labelBackgroundColor=none;whiteSpace=wrap;" parent="1" vertex="1">
                    <mxGeometry x="95" y="35" width="165" height="30" as="geometry"/>
                </mxCell>
                <mxCell id="52" value="" style="rounded=1;whiteSpace=wrap;html=1;shadow=0;strokeColor=default;strokeWidth=1;fontFamily=Verdana;fillColor=#251F2E;gradientColor=none;arcSize=12;" parent="1" vertex="1">
                    <mxGeometry x="520" y="36" width="120" height="30" as="geometry"/>
                </mxCell>
                <mxCell id="53" value="" style="rounded=1;whiteSpace=wrap;html=1;shadow=0;strokeColor=none;strokeWidth=0;fontFamily=Verdana;fillColor=#1D1924;gradientColor=none;arcSize=25;" parent="1" vertex="1">
                    <mxGeometry x="524" y="40" width="82" height="22" as="geometry"/>
                </mxCell>
                <mxCell id="55" value="" style="sketch=0;html=1;aspect=fixed;shadow=0;align=center;verticalAlign=top;shape=mxgraph.gcp2.search;strokeWidth=0.5;fontFamily=Verdana;fillColor=#332A3D;fontColor=#ffffff;strokeColor=default;" parent="1" vertex="1">
                    <mxGeometry x="612" y="40" width="21.04" height="21.25" as="geometry"/>
                </mxCell>
                <mxCell id="56" value="" style="html=1;verticalLabelPosition=bottom;labelBackgroundColor=#ffffff;verticalAlign=top;shadow=0;dashed=0;strokeWidth=2;shape=mxgraph.ios7.misc.expand;fillColor=#c0c0c0;strokeColor=default;fontFamily=Verdana;rotation=90;" parent="1" vertex="1">
                    <mxGeometry x="154.07" y="250.94" width="41.12" height="11.25" as="geometry"/>
                </mxCell>
                <mxCell id="57" value="" style="shape=dataStorage;whiteSpace=wrap;html=1;fixedSize=1;shadow=1;strokeColor=default;strokeWidth=0.5;fontFamily=Verdana;fillColor=#18141d;gradientColor=none;rotation=-180;" parent="1" vertex="1">
                    <mxGeometry x="177.5" y="347.5" width="50" height="65" as="geometry"/>
                </mxCell>
                <mxCell id="22" value="" style="rounded=0;whiteSpace=wrap;html=1;shadow=0;strokeWidth=0.5;" parent="1" vertex="1">
                    <mxGeometry x="90" y="80" width="110" height="600" as="geometry"/>
                </mxCell>
                <mxCell id="58" value="" style="html=1;verticalLabelPosition=bottom;labelBackgroundColor=#ffffff;verticalAlign=top;shadow=0;dashed=0;strokeWidth=2;shape=mxgraph.ios7.misc.expand;fillColor=#c0c0c0;strokeColor=default;fontFamily=Verdana;rotation=-90;" parent="1" vertex="1">
                    <mxGeometry x="198.5" y="377" width="24" height="6" as="geometry"/>
                </mxCell>
                <mxCell id="60" value="" style="rounded=0;whiteSpace=wrap;html=1;shadow=0;strokeColor=default;strokeWidth=1;fontFamily=Verdana;fillColor=#332A3D;gradientColor=none;" parent="1" vertex="1">
                    <mxGeometry x="185" y="1235" width="535" height="275" as="geometry"/>
                </mxCell>
                <mxCell id="61" value="" style="rounded=0;whiteSpace=wrap;html=1;shadow=0;strokeColor=default;strokeWidth=1;fontFamily=Verdana;fillColor=#332A3D;gradientColor=none;" parent="1" vertex="1">
                    <mxGeometry x="185" y="1235" width="270" height="275" as="geometry"/>
                </mxCell>
                <mxCell id="63" value="&lt;h1 style=&quot;&quot;&gt;&lt;font style=&quot;font-size: 24px;&quot;&gt;Min Timeplan&lt;/font&gt;&lt;/h1&gt;&lt;p style=&quot;&quot;&gt;&lt;font style=&quot;font-size: 18px;&quot;&gt;Lorem ipsum dolor sit amet, consectetur adipisicing elit, sed do eiusmod tempor incididunt ut labore.&lt;/font&gt;&lt;/p&gt;&lt;p style=&quot;&quot;&gt;&lt;span style=&quot;font-size: 18px;&quot;&gt;&lt;i&gt;&lt;u&gt;Åpne timeplanen min -&amp;gt;&lt;/u&gt;&lt;/i&gt;&lt;/span&gt;&lt;/p&gt;" style="text;html=1;strokeColor=none;fillColor=none;spacing=5;spacingTop=-20;whiteSpace=wrap;overflow=hidden;rounded=0;shadow=0;strokeWidth=1;fontFamily=Verdana;fontSize=19;" parent="1" vertex="1">
                    <mxGeometry x="465" y="1240" width="245" height="255" as="geometry"/>
                </mxCell>
                <mxCell id="64" value="&lt;font style=&quot;font-size: 18px;&quot;&gt;Bilde:&lt;br style=&quot;font-size: 18px;&quot;&gt;Forhåndsvisning av&amp;nbsp; timeplan.&lt;/font&gt;" style="text;html=1;strokeColor=none;fillColor=none;align=center;verticalAlign=middle;whiteSpace=wrap;rounded=0;shadow=0;strokeWidth=1;fontFamily=Verdana;fontSize=18;" parent="1" vertex="1">
                    <mxGeometry x="215" y="1330" width="190" height="90" as="geometry"/>
                </mxCell>
                <mxCell id="71" value="" style="rounded=0;whiteSpace=wrap;html=1;shadow=0;strokeColor=default;strokeWidth=1;fontFamily=Verdana;fillColor=#332A3D;gradientColor=none;" parent="1" vertex="1">
                    <mxGeometry x="180" y="935" width="535" height="275" as="geometry"/>
                </mxCell>
                <mxCell id="72" value="" style="rounded=0;whiteSpace=wrap;html=1;shadow=0;strokeColor=default;strokeWidth=1;fontFamily=Verdana;fillColor=#332A3D;gradientColor=none;" parent="1" vertex="1">
                    <mxGeometry x="180" y="935" width="270" height="275" as="geometry"/>
                </mxCell>
                <mxCell id="73" value="&lt;h1 style=&quot;&quot;&gt;&lt;span style=&quot;font-size: 24px;&quot;&gt;Om Meg :)&lt;/span&gt;&lt;/h1&gt;&lt;p style=&quot;&quot;&gt;&lt;font style=&quot;font-size: 18px;&quot;&gt;Lorem ipsum dolor sit amet, consectetur adipisicing elit, sed do eiusmod tempor incididunt ut labore un paso atrás.&lt;/font&gt;&lt;/p&gt;" style="text;html=1;strokeColor=none;fillColor=none;spacing=5;spacingTop=-20;whiteSpace=wrap;overflow=hidden;rounded=0;shadow=0;strokeWidth=1;fontFamily=Verdana;fontSize=19;" parent="1" vertex="1">
                    <mxGeometry x="197.5" y="950" width="242.5" height="255" as="geometry"/>
                </mxCell>
                <mxCell id="74" value="&lt;font style=&quot;font-size: 17px;&quot;&gt;Bilde:&lt;br style=&quot;font-size: 17px;&quot;&gt;Av Meg.&lt;br style=&quot;font-size: 17px;&quot;&gt;Rullerer Gjennom Samling.&lt;br style=&quot;font-size: 17px;&quot;&gt;&lt;/font&gt;" style="text;html=1;strokeColor=none;fillColor=none;align=center;verticalAlign=middle;whiteSpace=wrap;rounded=0;shadow=0;strokeWidth=1;fontFamily=Verdana;fontSize=17;" parent="1" vertex="1">
                    <mxGeometry x="464.55999999999995" y="970" width="212.72" height="125" as="geometry"/>
                </mxCell>
                <mxCell id="76" value="Forskjellige blokker på Hjemmesiden:" style="text;html=1;strokeColor=none;fillColor=none;align=center;verticalAlign=middle;whiteSpace=wrap;rounded=0;shadow=0;strokeWidth=1;fontFamily=Verdana;fontSize=28;" parent="1" vertex="1">
                    <mxGeometry x="135" y="775" width="535" height="80" as="geometry"/>
                </mxCell>
                <mxCell id="81" value="" style="rounded=0;whiteSpace=wrap;html=1;shadow=0;strokeColor=default;strokeWidth=1;fontFamily=Verdana;fillColor=#332A3D;gradientColor=none;" parent="1" vertex="1">
                    <mxGeometry x="180" y="1535" width="535" height="275" as="geometry"/>
                </mxCell>
                <mxCell id="82" value="" style="rounded=0;whiteSpace=wrap;html=1;shadow=0;strokeColor=default;strokeWidth=1;fontFamily=Verdana;fillColor=#332A3D;gradientColor=none;" parent="1" vertex="1">
                    <mxGeometry x="180" y="1535" width="270" height="275" as="geometry"/>
                </mxCell>
                <mxCell id="83" value="&lt;h1 style=&quot;&quot;&gt;&lt;font style=&quot;font-size: 23px;&quot;&gt;Prosjektene mine&lt;/font&gt;&lt;/h1&gt;&lt;p style=&quot;&quot;&gt;&lt;font style=&quot;font-size: 18px;&quot;&gt;Lorem ipsum dolor sit amet, consectetur adipisicing elit, sed do eiusmod tempor incididunt ut labore.&lt;/font&gt;&lt;/p&gt;&lt;p style=&quot;&quot;&gt;&lt;i style=&quot;&quot;&gt;&lt;u style=&quot;&quot;&gt;&lt;font style=&quot;font-size: 16px;&quot;&gt;Se alle prosjektene mine -&amp;gt;&lt;/font&gt;&lt;/u&gt;&lt;/i&gt;&lt;/p&gt;" style="text;html=1;strokeColor=none;fillColor=none;spacing=5;spacingTop=-20;whiteSpace=wrap;overflow=hidden;rounded=0;shadow=0;strokeWidth=1;fontFamily=Verdana;fontSize=19;" parent="1" vertex="1">
                    <mxGeometry x="197.5" y="1550" width="242.5" height="255" as="geometry"/>
                </mxCell>
                <mxCell id="84" value="&lt;font style=&quot;font-size: 17px;&quot;&gt;Bilde / noe annet:&lt;br&gt;Forhåndsvisnings av prosjektene mine&lt;br style=&quot;font-size: 17px;&quot;&gt;&lt;/font&gt;" style="text;html=1;strokeColor=none;fillColor=none;align=center;verticalAlign=middle;whiteSpace=wrap;rounded=0;shadow=0;strokeWidth=1;fontFamily=Verdana;fontSize=17;" parent="1" vertex="1">
                    <mxGeometry x="464.55999999999995" y="1570" width="212.72" height="125" as="geometry"/>
                </mxCell>
                <mxCell id="85" value="" style="rounded=1;whiteSpace=wrap;html=1;shadow=0;strokeColor=default;strokeWidth=1;fillColor=#26202E;gradientColor=none;arcSize=13;" parent="1" vertex="1">
                    <mxGeometry x="685" y="35" width="30" height="30" as="geometry"/>
                </mxCell>
                <mxCell id="89" value="" style="shape=actor;whiteSpace=wrap;html=1;shadow=0;strokeColor=default;strokeWidth=1;fontFamily=Verdana;fontSize=23;fillColor=none;gradientColor=none;" parent="1" vertex="1">
                    <mxGeometry x="689.25" y="40" width="21.5" height="25" as="geometry"/>
                </mxCell>
                <mxCell id="91" value="Search..." style="text;html=1;strokeColor=none;fillColor=none;align=left;verticalAlign=middle;whiteSpace=wrap;rounded=0;shadow=0;strokeWidth=1;fontFamily=Verdana;fontSize=11;textOpacity=50;" parent="1" vertex="1">
                    <mxGeometry x="526" y="35" width="65" height="30" as="geometry"/>
                </mxCell>
                <mxCell id="96" value="&lt;font style=&quot;font-size: 18px;&quot;&gt;Sidetittel&lt;/font&gt;" style="text;html=1;strokeColor=none;fillColor=none;align=left;verticalAlign=middle;whiteSpace=wrap;rounded=0;" parent="1" vertex="1">
                    <mxGeometry x="285" y="35" width="210" height="30" as="geometry"/>
                </mxCell>
                <mxCell id="97" value="" style="group;rotation=0;" vertex="1" connectable="0" parent="1">
                    <mxGeometry x="895" y="70" width="32.28" height="30.63" as="geometry"/>
                </mxCell>
                <mxCell id="95" value="" style="rounded=1;whiteSpace=wrap;html=1;shadow=0;strokeColor=default;strokeWidth=1;fillColor=#26202E;gradientColor=none;arcSize=13;rotation=0;" parent="97" vertex="1">
                    <mxGeometry width="32.28" height="30.630000000000003" as="geometry"/>
                </mxCell>
                <mxCell id="92" value="" style="rounded=1;whiteSpace=wrap;html=1;shadow=0;fillColor=#352C40;arcSize=50;gradientColor=none;strokeColor=default;strokeWidth=0.5;rotation=0;" parent="97" vertex="1">
                    <mxGeometry x="4" y="13" width="24.21" height="4.084" as="geometry"/>
                </mxCell>
                <mxCell id="93" value="" style="rounded=1;whiteSpace=wrap;html=1;shadow=0;fillColor=#352C40;arcSize=50;gradientColor=none;strokeColor=default;strokeWidth=0.5;rotation=0;" parent="97" vertex="1">
                    <mxGeometry x="4" y="6" width="24.21" height="4.084" as="geometry"/>
                </mxCell>
                <mxCell id="94" value="" style="rounded=1;whiteSpace=wrap;html=1;shadow=0;fillColor=#352C40;arcSize=50;gradientColor=none;strokeColor=default;strokeWidth=0.5;rotation=0;" parent="97" vertex="1">
                    <mxGeometry x="4" y="20" width="24.21" height="4.084" as="geometry"/>
                </mxCell>
            </root>
        </mxGraphModel>
    </diagram>
</mxfile>